{
    "asset" : {
        "generator" : "Khronos glTF Blender I/O v1.7.33",
        "version" : "2.0"
    },
    "scene" : 0,
    "scenes" : [
        {
            "name" : "Scene",
            "nodes" : [
                0,
                1,
                2,
                3
            ]
        }
    ],
    "nodes" : [
        {
            "mesh" : 0,
            "name" : "Cube"
        },
        {
            "mesh" : 1,
            "name" : "Cube.001",
            "translation" : [
                0,
                1.5076754093170166,
                0
            ]
        },
        {
            "mesh" : 2,
            "name" : "Plane",
            "translation" : [
                0,
                3.3478307723999023,
                0
            ]
        },
        {
            "mesh" : 3,
            "name" : "Cube.002",
            "rotation" : [
                -1,
                0,
                0,
                7.549790126404332e-08
            ],
            "translation" : [
                0,
                5.235123634338379,
                0
            ]
        }
    ],
    "materials" : [
        {
            "doubleSided" : true,
            "name" : "Bun material",
            "pbrMetallicRoughness" : {
                "baseColorFactor" : [
                    0.8000000715255737,
                    0.27957066893577576,
                    0.03363529220223427,
                    1
                ],
                "metallicFactor" : 0,
                "roughnessFactor" : 0.7337661981582642
            }
        },
        {
            "doubleSided" : true,
            "name" : "Meat Material",
            "pbrMetallicRoughness" : {
                "baseColorFactor" : [
                    0.1574275940656662,
                    0.023622259497642517,
                    0.0019782378803938627,
                    1
                ],
                "metallicFactor" : 0,
                "roughnessFactor" : 0.5
            }
        },
        {
            "doubleSided" : true,
            "name" : "chees material",
            "pbrMetallicRoughness" : {
                "baseColorFactor" : [
                    1,
                    0.4305562973022461,
                    0,
                    1
                ],
                "metallicFactor" : 0,
                "roughnessFactor" : 0.5
            }
        }
    ],
    "meshes" : [
        {
            "name" : "Cube.003",
            "primitives" : [
                {
                    "attributes" : {
                        "POSITION" : 0,
                        "NORMAL" : 1
                    },
                    "indices" : 2,
                    "material" : 0
                }
            ]
        },
        {
            "name" : "Cube.004",
            "primitives" : [
                {
                    "attributes" : {
                        "POSITION" : 3,
                        "NORMAL" : 4
                    },
                    "indices" : 2,
                    "material" : 1
                }
            ]
        },
        {
            "name" : "Plane",
            "primitives" : [
                {
                    "attributes" : {
                        "POSITION" : 5,
                        "NORMAL" : 6
                    },
                    "indices" : 7,
                    "material" : 2
                }
            ]
        },
        {
            "name" : "Cube.005",
            "primitives" : [
                {
                    "attributes" : {
                        "POSITION" : 8,
                        "NORMAL" : 9
                    },
                    "indices" : 2,
                    "material" : 0
                }
            ]
        }
    ],
    "accessors" : [
        {
            "bufferView" : 0,
            "componentType" : 5126,
            "count" : 898,
            "max" : [
                4.583333492279053,
                1.933781623840332,
                4.583333492279053
            ],
            "min" : [
                -4.583333492279053,
                0.05808155611157417,
                -4.583333969116211
            ],
            "type" : "VEC3"
        },
        {
            "bufferView" : 1,
            "componentType" : 5126,
            "count" : 898,
            "type" : "VEC3"
        },
        {
            "bufferView" : 2,
            "componentType" : 5123,
            "count" : 5376,
            "type" : "SCALAR"
        },
        {
            "bufferView" : 3,
            "componentType" : 5126,
            "count" : 898,
            "max" : [
                4.563146591186523,
                1.5703470706939697,
                4.563146114349365
            ],
            "min" : [
                -4.563146114349365,
                0.3659343719482422,
                -4.563146591186523
            ],
            "type" : "VEC3"
        },
        {
            "bufferView" : 4,
            "componentType" : 5126,
            "count" : 898,
            "type" : "VEC3"
        },
        {
            "bufferView" : 5,
            "componentType" : 5126,
            "count" : 504,
            "max" : [
                5.371304512023926,
                0,
                5.160149574279785
            ],
            "min" : [
                -5,
                -1.3445241451263428,
                -5
            ],
            "type" : "VEC3"
        },
        {
            "bufferView" : 6,
            "componentType" : 5126,
            "count" : 504,
            "type" : "VEC3"
        },
        {
            "bufferView" : 7,
            "componentType" : 5123,
            "count" : 2340,
            "type" : "SCALAR"
        },
        {
            "bufferView" : 8,
            "componentType" : 5126,
            "count" : 898,
            "max" : [
                4.583333492279053,
                1.933781623840332,
                4.583333492279053
            ],
            "min" : [
                -4.583333492279053,
                -0.1451195627450943,
                -4.583333969116211
            ],
            "type" : "VEC3"
        },
        {
            "bufferView" : 9,
            "componentType" : 5126,
            "count" : 898,
            "type" : "VEC3"
        }
    ],
    "bufferViews" : [
        {
            "buffer" : 0,
            "byteLength" : 10776,
            "byteOffset" : 0
        },
        {
            "buffer" : 0,
            "byteLength" : 10776,
            "byteOffset" : 10776
        },
        {
            "buffer" : 0,
            "byteLength" : 10752,
            "byteOffset" : 21552
        },
        {
            "buffer" : 0,
            "byteLength" : 10776,
            "byteOffset" : 32304
        },
        {
            "buffer" : 0,
            "byteLength" : 10776,
            "byteOffset" : 43080
        },
        {
            "buffer" : 0,
            "byteLength" : 6048,
            "byteOffset" : 53856
        },
        {
            "buffer" : 0,
            "byteLength" : 6048,
            "byteOffset" : 59904
        },
        {
            "buffer" : 0,
            "byteLength" : 4680,
            "byteOffset" : 65952
        },
        {
            "buffer" : 0,
            "byteLength" : 10776,
            "byteOffset" : 70632
        },
        {
            "buffer" : 0,
            "byteLength" : 10776,
            "byteOffset" : 81408
        }
    ],
    "buffers" : [
        {
            "byteLength" : 92184,
            "uri" : "data:application/octet-stream;base64,"
        }
    ]
}
